<svg width="222" height="50" viewBox="0 0 222 50" fill="none" xmlns="http://www.w3.org/2000/svg">
<path d="M22.912 2.304V8.88H9.184V15.984H19.456V22.368H9.184V36H0.976V2.304H22.912ZM25.594 22.56C25.594 19.808 26.106 17.392 27.13 15.312C28.186 13.232 29.61 11.632 31.402 10.512C33.194 9.392 35.194 8.832 37.402 8.832C39.29 8.832 40.938 9.216 42.346 9.984C43.786 10.752 44.89 11.76 45.658 13.008V9.216H53.866V36H45.658V32.208C44.858 33.456 43.738 34.464 42.298 35.232C40.89 36 39.242 36.384 37.354 36.384C35.178 36.384 33.194 35.824 31.402 34.704C29.61 33.552 28.186 31.936 27.13 29.856C26.106 27.744 25.594 25.312 25.594 22.56ZM45.658 22.608C45.658 20.56 45.082 18.944 43.93 17.76C42.81 16.576 41.434 15.984 39.802 15.984C38.17 15.984 36.778 16.576 35.626 17.76C34.506 18.912 33.946 20.512 33.946 22.56C33.946 24.608 34.506 26.24 35.626 27.456C36.778 28.64 38.17 29.232 39.802 29.232C41.434 29.232 42.81 28.64 43.93 27.456C45.082 26.272 45.658 24.656 45.658 22.608ZM70.7001 36.384C68.3641 36.384 66.2841 35.984 64.4601 35.184C62.6361 34.384 61.1961 33.296 60.1401 31.92C59.0841 30.512 58.4921 28.944 58.3641 27.216H66.4761C66.5721 28.144 67.0041 28.896 67.7721 29.472C68.5401 30.048 69.4841 30.336 70.6041 30.336C71.6281 30.336 72.4121 30.144 72.9561 29.76C73.5321 29.344 73.8201 28.816 73.8201 28.176C73.8201 27.408 73.4201 26.848 72.6201 26.496C71.8201 26.112 70.5241 25.696 68.7321 25.248C66.8121 24.8 65.2121 24.336 63.9321 23.856C62.6521 23.344 61.5481 22.56 60.6201 21.504C59.6921 20.416 59.2281 18.96 59.2281 17.136C59.2281 15.6 59.6441 14.208 60.4761 12.96C61.3401 11.68 62.5881 10.672 64.2201 9.936C65.8841 9.2 67.8521 8.832 70.1241 8.832C73.4841 8.832 76.1241 9.664 78.0441 11.328C79.9961 12.992 81.1161 15.2 81.4041 17.952H73.8201C73.6921 17.024 73.2761 16.288 72.5721 15.744C71.9001 15.2 71.0041 14.928 69.8841 14.928C68.9241 14.928 68.1881 15.12 67.6761 15.504C67.1641 15.856 66.9081 16.352 66.9081 16.992C66.9081 17.76 67.3081 18.336 68.1081 18.72C68.9401 19.104 70.2201 19.488 71.9481 19.872C73.9321 20.384 75.5481 20.896 76.7961 21.408C78.0441 21.888 79.1321 22.688 80.0601 23.808C81.0201 24.896 81.5161 26.368 81.5481 28.224C81.5481 29.792 81.1001 31.2 80.2041 32.448C79.3401 33.664 78.0761 34.624 76.4121 35.328C74.7801 36.032 72.8761 36.384 70.7001 36.384ZM103.034 8.928C106.106 8.928 108.57 9.952 110.426 12C112.282 14.016 113.21 16.8 113.21 20.352V36H105.05V21.456C105.05 19.664 104.586 18.272 103.658 17.28C102.73 16.288 101.482 15.792 99.9138 15.792C98.3458 15.792 97.0978 16.288 96.1698 17.28C95.2418 18.272 94.7778 19.664 94.7778 21.456V36H86.5698V0.48H94.7778V12.816C95.6098 11.632 96.7458 10.688 98.1858 9.984C99.6258 9.28 101.242 8.928 103.034 8.928ZM139.314 18.72C141.266 19.136 142.834 20.112 144.018 21.648C145.202 23.152 145.794 24.88 145.794 26.832C145.794 29.648 144.802 31.888 142.818 33.552C140.866 35.184 138.13 36 134.61 36H118.914V2.304H134.082C137.506 2.304 140.178 3.088 142.098 4.656C144.05 6.224 145.026 8.352 145.026 11.04C145.026 13.024 144.498 14.672 143.442 15.984C142.418 17.296 141.042 18.208 139.314 18.72ZM127.122 15.936H132.498C133.842 15.936 134.866 15.648 135.57 15.072C136.306 14.464 136.674 13.584 136.674 12.432C136.674 11.28 136.306 10.4 135.57 9.792C134.866 9.184 133.842 8.88 132.498 8.88H127.122V15.936ZM133.17 29.376C134.546 29.376 135.602 29.072 136.338 28.464C137.106 27.824 137.49 26.912 137.49 25.728C137.49 24.544 137.09 23.616 136.29 22.944C135.522 22.272 134.45 21.936 133.074 21.936H127.122V29.376H133.17ZM158.762 0.48V36H150.554V0.48H158.762ZM176.902 36.384C174.278 36.384 171.91 35.824 169.798 34.704C167.718 33.584 166.07 31.984 164.854 29.904C163.67 27.824 163.078 25.392 163.078 22.608C163.078 19.856 163.686 17.44 164.902 15.36C166.118 13.248 167.782 11.632 169.894 10.512C172.006 9.392 174.374 8.832 176.998 8.832C179.622 8.832 181.99 9.392 184.102 10.512C186.214 11.632 187.878 13.248 189.094 15.36C190.31 17.44 190.918 19.856 190.918 22.608C190.918 25.36 190.294 27.792 189.046 29.904C187.83 31.984 186.15 33.584 184.006 34.704C181.894 35.824 179.526 36.384 176.902 36.384ZM176.902 29.28C178.47 29.28 179.798 28.704 180.886 27.552C182.006 26.4 182.566 24.752 182.566 22.608C182.566 20.464 182.022 18.816 180.934 17.664C179.878 16.512 178.566 15.936 176.998 15.936C175.398 15.936 174.07 16.512 173.014 17.664C171.958 18.784 171.43 20.432 171.43 22.608C171.43 24.752 171.942 26.4 172.966 27.552C174.022 28.704 175.334 29.28 176.902 29.28ZM205.449 8.832C207.337 8.832 208.985 9.216 210.393 9.984C211.833 10.752 212.937 11.76 213.705 13.008V9.216H221.913V35.952C221.913 38.416 221.417 40.64 220.425 42.624C219.465 44.64 217.977 46.24 215.961 47.424C213.977 48.608 211.497 49.2 208.521 49.2C204.553 49.2 201.337 48.256 198.873 46.368C196.409 44.512 195.001 41.984 194.649 38.784H202.761C203.017 39.808 203.625 40.608 204.585 41.184C205.545 41.792 206.729 42.096 208.137 42.096C209.833 42.096 211.177 41.6 212.169 40.608C213.193 39.648 213.705 38.096 213.705 35.952V32.16C212.905 33.408 211.801 34.432 210.393 35.232C208.985 36 207.337 36.384 205.449 36.384C203.241 36.384 201.241 35.824 199.449 34.704C197.657 33.552 196.233 31.936 195.177 29.856C194.153 27.744 193.641 25.312 193.641 22.56C193.641 19.808 194.153 17.392 195.177 15.312C196.233 13.232 197.657 11.632 199.449 10.512C201.241 9.392 203.241 8.832 205.449 8.832ZM213.705 22.608C213.705 20.56 213.129 18.944 211.977 17.76C210.857 16.576 209.481 15.984 207.849 15.984C206.217 15.984 204.825 16.576 203.673 17.76C202.553 18.912 201.993 20.512 201.993 22.56C201.993 24.608 202.553 26.24 203.673 27.456C204.825 28.64 206.217 29.232 207.849 29.232C209.481 29.232 210.857 28.64 211.977 27.456C213.129 26.272 213.705 24.656 213.705 22.608Z" fill="white"/>
</svg>
